<svg width="344" height="434" viewBox="0 0 344 434" fill="none" xmlns="http://www.w3.org/2000/svg">
<path d="M87.6 306.4C57.4667 306.4 35.3333 298.8 21.2 283.6C7.06667 268.4 0 243.2 0 208C0 180 4.66667 149.867 14 117.6C23.6 85.3334 38.8 57.7334 59.6 34.8C80.6667 11.6 107.333 0 139.6 0C159.6 0 175.733 4.40001 188 13.2C200.267 22 206.4 35.4667 206.4 53.6C206.4 65.0667 204.133 74.1334 199.6 80.8C195.067 87.2 188 90.4 178.4 90.4C168.8 90.4 161.2 86.9333 155.6 80C160.4 77.6 164.667 72.8 168.4 65.6C172.133 58.4 174 50.9333 174 43.2C174 36 172 30.1333 168 25.6C164.267 21.0667 158.133 18.8 149.6 18.8C135.467 18.8 122 28.5334 109.2 48C96.4 67.2 86 91.4667 78 120.8C70.2667 150.133 66.4 178.4 66.4 205.6C66.4 225.867 69.8667 241.333 76.8 252C83.7333 262.667 96.2667 268 114.4 268C130.133 268 144.667 264.533 158 257.6C171.333 250.667 182.8 240.8 192.4 228L201.6 232C194.933 248.8 185.067 262.8 172 274C158.933 285.2 144.933 293.467 130 298.8C115.067 303.867 100.933 306.4 87.6 306.4Z" fill="#05B0FE"/>
<path d="M178.2 433.8C159.267 433.8 144.6 428.6 134.2 418.2C124.067 408.067 119 394.467 119 377.4C119 363 123.4 350.467 132.2 339.8C141 329.133 152.867 323.8 167.8 323.8C179.267 323.8 188.6 325.533 195.8 329C203.267 332.2 207 339.4 207 350.6C207 355.4 206.2 360.733 204.6 366.6C199.8 362.6 195.667 359.8 192.2 358.2C188.733 356.867 184.867 356.2 180.6 356.2C171.8 356.2 164.867 359.133 159.8 365C155 370.867 152.6 377.8 152.6 385.8C152.6 395.133 155.4 402.067 161 406.6C166.6 411.4 172.867 413.8 179.8 413.8C186.2 413.8 191.533 412.467 195.8 409.8C200.333 407.4 204.333 402.6 207.8 395.4C211.267 388.467 214.6 378.2 217.8 364.6L280.6 79C262.733 86.2 248.867 97.2667 239 112.2C229.133 127.133 224.2 145.267 224.2 166.6C224.2 176.467 225.133 183.4 227 187.4C228.867 191.133 229.8 193.267 229.8 193.8C215.4 193.8 204.6 190.867 197.4 185C190.467 178.867 187 168.867 187 155C187 137.933 193.933 121.4 207.8 105.4C221.933 89.1334 239.933 76.0667 261.8 66.2C283.667 56.0667 305.533 51 327.4 51H343.4L283.4 335C276.467 367.8 265 392.467 249 409C233 425.533 209.4 433.8 178.2 433.8Z" fill="#05B0FE"/>
</svg>
